<svg width="24" height="24" viewBox="0 0 24 24" fill="current" xmlns="http://www.w3.org/2000/svg">
<mask id="mask0_1836_747" style="mask-type:alpha" maskUnits="userSpaceOnUse" x="0" y="0" width="24" height="24">
<rect width="24" height="24" fill="#D9D9D9"/>
</mask>
<g mask="url(#mask0_1836_747)">
<path d="M17.4771 20.6038L11.1771 14.273C10.8245 14.4257 10.4661 14.5433 10.1019 14.626C9.73755 14.7087 9.35105 14.75 8.94238 14.75C7.34522 14.75 5.98763 14.191 4.86963 13.073C3.75147 11.9548 3.19238 10.5972 3.19238 9C3.19238 8.48333 3.25813 7.98942 3.38963 7.51825C3.52097 7.04708 3.7078 6.59867 3.95013 6.173L7.54238 9.74625L9.68863 7.6L6.13488 4.027C6.56038 3.78467 7.0058 3.59458 7.47113 3.45675C7.93647 3.31892 8.42688 3.25 8.94238 3.25C10.5397 3.25 11.8974 3.809 13.0154 4.927C14.1334 6.04517 14.6924 7.40283 14.6924 9C14.6924 9.42183 14.6526 9.81475 14.5731 10.1788C14.4936 10.5429 14.3744 10.8949 14.2154 11.2348L20.5464 17.5348C20.7207 17.7113 20.8079 17.9246 20.8079 18.1748C20.8079 18.4249 20.7214 18.6365 20.5484 18.8095L18.7326 20.6252C18.5596 20.7981 18.3507 20.8813 18.1059 20.875C17.8611 20.8685 17.6515 20.7781 17.4771 20.6038ZM18.1156 19.104L19.0309 18.1885L12.3714 11.5288C12.6521 11.1826 12.8591 10.7887 12.9924 10.347C13.1257 9.90533 13.1924 9.45633 13.1924 9C13.1924 7.891 12.7962 6.90958 12.0039 6.05575C11.2116 5.20192 10.209 4.78333 8.99613 4.8L11.1636 6.96725C11.3443 7.14808 11.4346 7.359 11.4346 7.6C11.4346 7.841 11.3443 8.05192 11.1636 8.23275L8.17513 11.2213C7.9943 11.4019 7.78338 11.4923 7.54238 11.4923C7.30138 11.4923 7.09047 11.4019 6.90963 11.2213L4.74238 9.05375C4.74488 10.3371 5.1763 11.3573 6.03663 12.1145C6.89697 12.8715 7.86555 13.25 8.94238 13.25C9.38005 13.25 9.81772 13.1849 10.2554 13.0548C10.6929 12.9248 11.0931 12.7213 11.4559 12.4443L18.1156 19.104Z" fill="current"/>
</g>
</svg>
