<svg width="25" height="24" viewBox="0 0 25 24" fill="none" xmlns="http://www.w3.org/2000/svg">
<mask id="mask0_2724_17072" style="mask-type:alpha" maskUnits="userSpaceOnUse" x="0" y="0" width="25" height="24">
<rect x="0.75" width="24" height="24" fill="#D9D9D9"/>
</mask>
<g mask="url(#mask0_2724_17072)">
<path d="M3.11551 20.5771V3.07715H12.6153V7.07715H22.3845V15.2309H20.8848V8.57715H12.6153V11.0771H14.8078V12.5771H12.6153V15.0771H14.8078V16.5771H12.6153V19.0771H17V20.5771H3.11551ZM4.61526 19.0771H7.11551V16.5771H4.61526V19.0771ZM4.61526 15.0771H7.11551V12.5771H4.61526V15.0771ZM4.61526 11.0771H7.11551V8.57715H4.61526V11.0771ZM4.61526 7.07715H7.11551V4.57715H4.61526V7.07715ZM8.61526 19.0771H11.1155V16.5771H8.61526V19.0771ZM8.61526 15.0771H11.1155V12.5771H8.61526V15.0771ZM8.61526 11.0771H11.1155V8.57715H8.61526V11.0771ZM8.61526 7.07715H11.1155V4.57715H8.61526V7.07715ZM20.8848 22.5771V20.5771H18.8848V19.0771H20.8848V17.0771H22.3845V19.0771H24.3845V20.5771H22.3845V22.5771H20.8848ZM17 12.5771V11.0771H18.5V12.5771H17ZM17 16.5771V15.0771H18.5V16.5771H17Z" fill="#697591"/>
</g>
</svg>
