<svg width="25" height="24" viewBox="0 0 25 24" fill="none" xmlns="http://www.w3.org/2000/svg">
<mask id="mask0_2724_17064" style="mask-type:alpha" maskUnits="userSpaceOnUse" x="0" y="0" width="25" height="24">
<rect x="0.5" width="24" height="24" fill="#D9D9D9"/>
</mask>
<g mask="url(#mask0_2724_17064)">
<path d="M22.1345 18.6501L20.6347 17.1501V8.57708H12.0615L10.8655 7.38083V4.57708H8.04225L6.54225 3.07708H12.3652V7.07708H22.1345V18.6501ZM21.6347 22.9731L19.2077 20.5771H2.8655V4.20383L1.43075 2.76933L2.4845 1.71533L22.6885 21.9193L21.6347 22.9731ZM4.36525 19.0771H6.8655V16.5771H4.36525V19.0771ZM4.36525 15.0771H6.8655V12.5771H4.36525V15.0771ZM4.36525 11.0771H6.8655V8.57708H4.36525V11.0771ZM8.36525 19.0771H10.8655V16.5771H8.36525V19.0771ZM8.36525 15.0771H10.8655V12.5771H8.36525V15.0771ZM12.3652 19.0771H17.7077L15.2077 16.5771H12.3652V19.0771ZM18.25 12.5771H16.75V11.0771H18.25V12.5771Z" fill="#697591"/>
</g>
</svg>
