<svg width="20" height="20" viewBox="0 0 20 20" fill="none" xmlns="http://www.w3.org/2000/svg">
<mask id="mask0_3089_4817" style="mask-type:alpha" maskUnits="userSpaceOnUse" x="0" y="0" width="20" height="20">
<rect width="20" height="20" fill="#D9D9D9"/>
</mask>
<g mask="url(#mask0_3089_4817)">
<path d="M11.5225 17.9168V15.715L16.0465 11.2116C16.1501 11.1134 16.2619 11.0419 16.3821 10.997C16.5022 10.9522 16.6224 10.9297 16.7425 10.9297C16.8736 10.9297 17.0003 10.9543 17.1227 11.0033C17.2452 11.0525 17.3565 11.1262 17.4567 11.2245L18.2275 12.0033C18.3172 12.107 18.3867 12.2193 18.4358 12.34C18.485 12.4606 18.5096 12.5813 18.5096 12.702C18.5096 12.8227 18.4872 12.9456 18.4423 13.0706C18.3974 13.1956 18.3258 13.3099 18.2275 13.4135L13.7244 17.9168H11.5225ZM12.516 16.9233H13.3077L16.0127 14.2052L15.6377 13.8012L15.2419 13.4185L12.516 16.1316V16.9233ZM5.25646 17.9168C4.83549 17.9168 4.47917 17.771 4.1875 17.4793C3.89583 17.1877 3.75 16.8313 3.75 16.4104V3.58995C3.75 3.16898 3.89583 2.81266 4.1875 2.521C4.47917 2.22933 4.83549 2.0835 5.25646 2.0835H11.875L16.25 6.4585V8.79016H15V7.0835H11.25V3.3335H5.25646C5.19229 3.3335 5.13354 3.36023 5.08021 3.4137C5.02674 3.46704 5 3.52579 5 3.58995V16.4104C5 16.4745 5.02674 16.5333 5.08021 16.5866C5.13354 16.6401 5.19229 16.6668 5.25646 16.6668H9.69542V17.9168H5.25646ZM15.6377 13.8012L15.2419 13.4185L16.0127 14.2052L15.6377 13.8012Z" fill="#0061CA"/>
</g>
</svg>
