<svg width="24" height="24" viewBox="0 0 24 24" fill="none" xmlns="http://www.w3.org/2000/svg">
<mask id="mask0_1780_1890" style="mask-type:alpha" maskUnits="userSpaceOnUse" x="0" y="0" width="24" height="24">
<rect width="24" height="24" fill="#D9D9D9"/>
</mask>
<g mask="url(#mask0_1780_1890)">
<path d="M4.99982 19.0001H6.26132L16.4978 8.76362L15.2363 7.50212L4.99982 17.7386V19.0001ZM3.49982 20.5001V17.1156L16.6903 3.93087C16.8415 3.79354 17.0084 3.68746 17.1911 3.61262C17.3739 3.53762 17.5656 3.50012 17.7661 3.50012C17.9666 3.50012 18.1607 3.53571 18.3486 3.60687C18.5366 3.67804 18.703 3.7912 18.8478 3.94637L20.0691 5.18287C20.2242 5.32771 20.3348 5.49437 20.4008 5.68287C20.4668 5.87137 20.4998 6.05987 20.4998 6.24837C20.4998 6.44954 20.4655 6.64146 20.3968 6.82412C20.3282 7.00696 20.2189 7.17396 20.0691 7.32512L6.88432 20.5001H3.49982ZM15.8561 8.14387L15.2363 7.50212L16.4978 8.76362L15.8561 8.14387Z" fill="#0061CA"/>
</g>
</svg>
