<svg width="24" height="24" viewBox="0 0 24 24" fill="current" xmlns="http://www.w3.org/2000/svg">
<mask id="mask0_1892_595" style="mask-type:alpha" maskUnits="userSpaceOnUse" x="0" y="0" width="24" height="24">
<rect width="24" height="24" fill="#D9D9D9"/>
</mask>
<g mask="url(#mask0_1892_595)">
<path d="M17.2115 22.75V19.75H14.2115V18.25H17.2115V15.25H18.7115V18.25H21.7115V19.75H18.7115V22.75H17.2115ZM5.30775 20.5C4.80258 20.5 4.375 20.325 4.025 19.975C3.675 19.625 3.5 19.1974 3.5 18.6923V5.30775C3.5 4.80258 3.675 4.375 4.025 4.025C4.375 3.675 4.80258 3.5 5.30775 3.5H18.6923C19.1974 3.5 19.625 3.675 19.975 4.025C20.325 4.375 20.5 4.80258 20.5 5.30775V13.8828C20.2705 13.7571 20.0323 13.6519 19.7855 13.5673C19.5387 13.4828 19.2768 13.4136 19 13.3598V5.30775C19 5.23075 18.9679 5.16025 18.9038 5.09625C18.8398 5.03208 18.7693 5 18.6923 5H5.30775C5.23075 5 5.16025 5.03208 5.09625 5.09625C5.03208 5.16025 5 5.23075 5 5.30775V18.6923C5 18.7693 5.03208 18.8398 5.09625 18.9038C5.16025 18.9679 5.23075 19 5.30775 19H12.2115C12.2115 19.2602 12.2284 19.5157 12.2622 19.7665C12.2959 20.0173 12.3521 20.2618 12.4308 20.5H5.30775ZM8.05825 16.7693C8.30908 16.7693 8.51917 16.6844 8.6885 16.5147C8.85767 16.3451 8.94225 16.1348 8.94225 15.884C8.94225 15.6332 8.85742 15.4231 8.68775 15.2537C8.51808 15.0846 8.30783 15 8.057 15C7.80617 15 7.59617 15.0848 7.427 15.2545C7.25767 15.4242 7.173 15.6344 7.173 15.8853C7.173 16.1361 7.25783 16.3461 7.4275 16.5153C7.59733 16.6846 7.80758 16.7693 8.05825 16.7693ZM8.05825 12.8845C8.30908 12.8845 8.51917 12.7997 8.6885 12.63C8.85767 12.4603 8.94225 12.2501 8.94225 11.9993C8.94225 11.7484 8.85742 11.5384 8.68775 11.3692C8.51808 11.2001 8.30783 11.1155 8.057 11.1155C7.80617 11.1155 7.59617 11.2003 7.427 11.37C7.25767 11.5397 7.173 11.7499 7.173 12.0008C7.173 12.2516 7.25783 12.4616 7.4275 12.6308C7.59733 12.7999 7.80758 12.8845 8.05825 12.8845ZM8.05825 9C8.30908 9 8.51917 8.91517 8.6885 8.7455C8.85767 8.57583 8.94225 8.36558 8.94225 8.11475C8.94225 7.86392 8.85742 7.65392 8.68775 7.48475C8.51808 7.31542 8.30783 7.23075 8.057 7.23075C7.80617 7.23075 7.59617 7.31558 7.427 7.48525C7.25767 7.65492 7.173 7.86517 7.173 8.116C7.173 8.36683 7.25783 8.57692 7.4275 8.74625C7.59733 8.91542 7.80758 9 8.05825 9ZM11.0963 12.75H16.7885V11.25H11.0963V12.75ZM11.0963 8.86525H16.7885V7.3655H11.0963V8.86525ZM11.0963 16.6345H12.773C12.8872 16.3473 13.0234 16.0804 13.1818 15.8338C13.3401 15.5869 13.5205 15.3539 13.723 15.1348H11.0963V16.6345Z" fill="current"/>
<path d="M17.2115 22.75V19.75H14.2115V18.25H17.2115V15.25H18.7115V18.25H21.7115V19.75H18.7115V22.75H17.2115ZM5.30775 20.5C4.80258 20.5 4.375 20.325 4.025 19.975C3.675 19.625 3.5 19.1974 3.5 18.6923V5.30775C3.5 4.80258 3.675 4.375 4.025 4.025C4.375 3.675 4.80258 3.5 5.30775 3.5H18.6923C19.1974 3.5 19.625 3.675 19.975 4.025C20.325 4.375 20.5 4.80258 20.5 5.30775V13.8828C20.2705 13.7571 20.0323 13.6519 19.7855 13.5673C19.5387 13.4828 19.2768 13.4136 19 13.3598V5.30775C19 5.23075 18.9679 5.16025 18.9038 5.09625C18.8398 5.03208 18.7693 5 18.6923 5H5.30775C5.23075 5 5.16025 5.03208 5.09625 5.09625C5.03208 5.16025 5 5.23075 5 5.30775V18.6923C5 18.7693 5.03208 18.8398 5.09625 18.9038C5.16025 18.9679 5.23075 19 5.30775 19H12.2115C12.2115 19.2602 12.2284 19.5157 12.2622 19.7665C12.2959 20.0173 12.3521 20.2618 12.4308 20.5H5.30775ZM8.05825 16.7693C8.30908 16.7693 8.51917 16.6844 8.6885 16.5147C8.85767 16.3451 8.94225 16.1348 8.94225 15.884C8.94225 15.6332 8.85742 15.4231 8.68775 15.2537C8.51808 15.0846 8.30783 15 8.057 15C7.80617 15 7.59617 15.0848 7.427 15.2545C7.25767 15.4242 7.173 15.6344 7.173 15.8853C7.173 16.1361 7.25783 16.3461 7.4275 16.5153C7.59733 16.6846 7.80758 16.7693 8.05825 16.7693ZM8.05825 12.8845C8.30908 12.8845 8.51917 12.7997 8.6885 12.63C8.85767 12.4603 8.94225 12.2501 8.94225 11.9993C8.94225 11.7484 8.85742 11.5384 8.68775 11.3692C8.51808 11.2001 8.30783 11.1155 8.057 11.1155C7.80617 11.1155 7.59617 11.2003 7.427 11.37C7.25767 11.5397 7.173 11.7499 7.173 12.0008C7.173 12.2516 7.25783 12.4616 7.4275 12.6308C7.59733 12.7999 7.80758 12.8845 8.05825 12.8845ZM8.05825 9C8.30908 9 8.51917 8.91517 8.6885 8.7455C8.85767 8.57583 8.94225 8.36558 8.94225 8.11475C8.94225 7.86392 8.85742 7.65392 8.68775 7.48475C8.51808 7.31542 8.30783 7.23075 8.057 7.23075C7.80617 7.23075 7.59617 7.31558 7.427 7.48525C7.25767 7.65492 7.173 7.86517 7.173 8.116C7.173 8.36683 7.25783 8.57692 7.4275 8.74625C7.59733 8.91542 7.80758 9 8.05825 9ZM11.0963 12.75H16.7885V11.25H11.0963V12.75ZM11.0963 8.86525H16.7885V7.3655H11.0963V8.86525ZM11.0963 16.6345H12.773C12.8872 16.3473 13.0234 16.0804 13.1818 15.8338C13.3401 15.5869 13.5205 15.3539 13.723 15.1348H11.0963V16.6345Z" fill="black" fill-opacity="0.2"/>
</g>
</svg>
