<svg width="25" height="24" viewBox="0 0 25 24" fill="none" xmlns="http://www.w3.org/2000/svg">
<mask id="mask0_2724_17056" style="mask-type:alpha" maskUnits="userSpaceOnUse" x="0" y="0" width="25" height="24">
<rect x="0.25" width="24" height="24" fill="#D9D9D9"/>
</mask>
<g mask="url(#mask0_2724_17056)">
<path d="M1.75 20.5V3.5H14.7885V20.5H9.59625V16.5385H6.94225V20.5H1.75ZM3.25 19H5.44225V15.0385H11.0963V19H13.2885V5H3.25V19ZM5.44225 12.8463H7.173V11.1155H5.44225V12.8463ZM5.44225 8.923H7.173V7.19225H5.44225V8.923ZM9.3655 12.8463H11.0963V11.1155H9.3655V12.8463ZM9.3655 8.923H11.0963V7.19225H9.3655V8.923ZM19.6152 15.1442L18.5615 14.1L19.8962 12.75H16.3655V11.25H19.8962L18.5615 9.9L19.6152 8.85575L22.7595 12L19.6152 15.1442Z" fill="#697591"/>
</g>
</svg>
