<svg version="1.1" id="Uploaded to svgrepo.com" xmlns="http://www.w3.org/2000/svg" xmlns:xlink="http://www.w3.org/1999/xlink" width="20px" height="20px" viewBox="0 0 0.8 0.8" xml:space="preserve"><style type="text/css">.linesandangles_een{fill:#0061CA;}</style><path class="linesandangles_een" d="M0.685 0.14c-0.026 -0.026 -0.059 -0.038 -0.093 -0.038s-0.067 0.013 -0.093 0.038L0.204 0.436a0.078 0.078 0 0 0 0.11 0.11l0.207 -0.207 -0.035 -0.035 -0.207 0.207a0.028 0.028 0 0 1 -0.04 -0.04L0.535 0.175A0.081 0.081 0 0 1 0.65 0.175a0.081 0.081 0 0 1 0 0.115L0.354 0.586a0.134 0.134 0 0 1 -0.19 0 0.134 0.134 0 0 1 0 -0.19L0.421 0.14l-0.035 -0.035L0.129 0.361c-0.072 0.072 -0.072 0.188 0 0.26 0.072 0.072 0.188 0.072 0.26 0L0.685 0.325a0.131 0.131 0 0 0 0 -0.185"/></svg>