<svg width="24" height="24" viewBox="0 0 24 24" fill="none" xmlns="http://www.w3.org/2000/svg">
<mask id="mask0_1718_3034" style="mask-type:alpha" maskUnits="userSpaceOnUse" x="0" y="0" width="24" height="24">
<rect width="24" height="24" fill="#D9D9D9"/>
</mask>
<g mask="url(#mask0_1718_3034)">
<path d="M6.5 16.019C7.32817 16.019 8.13392 16.1129 8.91725 16.3007C9.70058 16.4886 10.4782 16.7831 11.25 17.1845V7.35347C10.5475 6.8958 9.78725 6.55255 8.96925 6.32372C8.15125 6.09489 7.32817 5.98047 6.5 5.98047C5.9 5.98047 5.33942 6.02755 4.81825 6.12172C4.29708 6.21605 3.7615 6.37022 3.2115 6.58422C3.13467 6.60989 3.08017 6.6468 3.048 6.69497C3.016 6.74297 3 6.7958 3 6.85347V16.3112C3 16.4011 3.03208 16.4668 3.09625 16.5085C3.16025 16.5501 3.23075 16.5549 3.30775 16.5227C3.78208 16.3612 4.28267 16.2369 4.8095 16.1497C5.3365 16.0626 5.9 16.019 6.5 16.019ZM12.75 17.1845C13.5218 16.7831 14.2994 16.4886 15.0828 16.3007C15.8661 16.1129 16.6718 16.019 17.5 16.019C18.1 16.019 18.6635 16.0626 19.1905 16.1497C19.7173 16.2369 20.2179 16.3612 20.6923 16.5227C20.7693 16.5549 20.8398 16.5501 20.9038 16.5085C20.9679 16.4668 21 16.4011 21 16.3112V6.85347C21 6.7958 20.984 6.74455 20.952 6.69972C20.9198 6.65489 20.8653 6.61639 20.7885 6.58422C20.2385 6.37022 19.7029 6.21605 19.1818 6.12172C18.6606 6.02755 18.1 5.98047 17.5 5.98047C16.6718 5.98047 15.8487 6.09489 15.0307 6.32372C14.2127 6.55255 13.4525 6.8958 12.75 7.35347V17.1845ZM12 19.3842C11.1937 18.7894 10.3238 18.3298 9.3905 18.0055C8.45717 17.6811 7.49367 17.519 6.5 17.519C5.88983 17.519 5.2905 17.5866 4.702 17.7217C4.1135 17.8571 3.54617 18.0561 3 18.319C2.64367 18.483 2.30458 18.457 1.98275 18.241C1.66092 18.025 1.5 17.7189 1.5 17.3227V6.46522C1.5 6.24972 1.5555 6.04747 1.6665 5.85847C1.77733 5.6693 1.93725 5.53305 2.14625 5.44972C2.82308 5.12022 3.5285 4.8763 4.2625 4.71797C4.9965 4.55964 5.74233 4.48047 6.5 4.48047C7.473 4.48047 8.42367 4.61347 9.352 4.87947C10.2802 5.14564 11.1628 5.5383 12 6.05747C12.8372 5.5383 13.7198 5.14564 14.648 4.87947C15.5763 4.61347 16.527 4.48047 17.5 4.48047C18.2577 4.48047 19.0035 4.55964 19.7375 4.71797C20.4715 4.8763 21.1769 5.12022 21.8538 5.44972C22.0627 5.53305 22.2227 5.6693 22.3335 5.85847C22.4445 6.04747 22.5 6.24972 22.5 6.46522V17.3227C22.5 17.7189 22.3327 18.0218 21.998 18.2315C21.6633 18.441 21.3114 18.4637 20.9423 18.2997C20.4026 18.0432 19.8433 17.849 19.2645 17.717C18.6857 17.585 18.0975 17.519 17.5 17.519C16.5063 17.519 15.5428 17.6811 14.6095 18.0055C13.6762 18.3298 12.8063 18.7894 12 19.3842Z" fill="#0061CA"/>
</g>
</svg>
