<svg width="20" height="20" viewBox="0 0 20 20" fill="none" xmlns="http://www.w3.org/2000/svg">
<mask id="mask0_1661_1016" style="mask-type:alpha" maskUnits="userSpaceOnUse" x="0" y="0" width="20" height="20">
<rect width="20" height="20" fill="#D9D9D9"/>
</mask>
<g mask="url(#mask0_1661_1016)">
<path d="M10.75 9.375V5.75C10.75 5.5375 10.6785 5.35937 10.5356 5.21562C10.3927 5.07187 10.2156 5 10.0044 5C9.79313 5 9.61458 5.07187 9.46875 5.21562C9.32292 5.35937 9.25 5.5375 9.25 5.75V9.6875C9.25 9.79861 9.27083 9.89931 9.3125 9.98958C9.35417 10.0799 9.40972 10.1597 9.47917 10.2292L12.2677 13.0177C12.4226 13.1726 12.6007 13.2465 12.8021 13.2396C13.0035 13.2326 13.1806 13.1528 13.3333 13C13.4861 12.8472 13.5625 12.6701 13.5625 12.4688C13.5625 12.2674 13.4838 12.0885 13.3263 11.9323L10.75 9.375ZM10 18C8.8975 18 7.86146 17.7917 6.89188 17.375C5.92229 16.9583 5.07292 16.3854 4.34375 15.6562C3.61458 14.9271 3.04167 14.0767 2.625 13.105C2.20833 12.1333 2 11.0951 2 9.99042C2 8.88569 2.20833 7.84722 2.625 6.875C3.04167 5.90278 3.61458 5.05556 4.34375 4.33333C5.07292 3.61111 5.92333 3.04167 6.895 2.625C7.86667 2.20833 8.90486 2 10.0096 2C11.1143 2 12.1528 2.21 13.1252 2.63C14.0974 3.05 14.9432 3.62 15.6625 4.34C16.3817 5.06 16.951 5.90667 17.3706 6.88C17.7902 7.85333 18 8.89333 18 10C18 11.1025 17.7917 12.1385 17.375 13.1081C16.9583 14.0777 16.3889 14.9271 15.6667 15.6562C14.9444 16.3854 14.0963 16.9583 13.1223 17.375C12.1483 17.7917 11.1075 18 10 18Z" fill="#FDBA0C"/>
</g>
</svg>
