<svg width="24" height="24" viewBox="0 0 24 24" fill="none" xmlns="http://www.w3.org/2000/svg">
<mask id="mask0_1614_3687" style="mask-type:alpha" maskUnits="userSpaceOnUse" x="0" y="0" width="24" height="24">
<rect width="24" height="24" fill="#D9D9D9"/>
</mask>
<g mask="url(#mask0_1614_3687)">
<path d="M19.5422 20.577L13.2615 14.296C12.7615 14.7088 12.1865 15.0319 11.5365 15.2653C10.8865 15.4986 10.2141 15.6153 9.51925 15.6153C7.81008 15.6153 6.36358 15.0235 5.17975 13.84C3.99592 12.6565 3.404 11.2103 3.404 9.50152C3.404 7.79285 3.99575 6.34618 5.17925 5.16152C6.36275 3.97702 7.80892 3.38477 9.51775 3.38477C11.2264 3.38477 12.6731 3.97668 13.8577 5.16051C15.0422 6.34435 15.6345 7.79085 15.6345 9.50002C15.6345 10.2142 15.5147 10.8963 15.275 11.5463C15.0352 12.1963 14.7152 12.7616 14.3152 13.2423L20.596 19.523L19.5422 20.577ZM9.51925 14.1155C10.8077 14.1155 11.8991 13.6683 12.7933 12.774C13.6876 11.8798 14.1347 10.7885 14.1347 9.50002C14.1347 8.21152 13.6876 7.12018 12.7933 6.22601C11.8991 5.33168 10.8077 4.88452 9.51925 4.88452C8.23075 4.88452 7.13942 5.33168 6.24525 6.22601C5.35092 7.12018 4.90375 8.21152 4.90375 9.50002C4.90375 10.7885 5.35092 11.8798 6.24525 12.774C7.13942 13.6683 8.23075 14.1155 9.51925 14.1155Z" fill="#697591"/>
</g>
</svg>
