<svg width="24" height="24" viewBox="0 0 24 24" fill="none" xmlns="http://www.w3.org/2000/svg">
<mask id="mask0_2724_17048" style="mask-type:alpha" maskUnits="userSpaceOnUse" x="0" y="0" width="24" height="24">
<rect width="24" height="24" fill="#D9D9D9"/>
</mask>
<g mask="url(#mask0_2724_17048)">
<path d="M2.36551 20.5768V4.32678L7.11551 0.884277L11.8653 4.32678V7.07678H21.6345V20.5768H2.36551ZM3.86526 19.0768H6.36551V16.5768H3.86526V19.0768ZM3.86526 15.0768H6.36551V12.5768H3.86526V15.0768ZM3.86526 11.0768H6.36551V8.57678H3.86526V11.0768ZM3.86526 7.07678H6.36551V4.57678H3.86526V7.07678ZM7.86526 7.07678H10.3655V4.57678H7.86526V7.07678ZM7.86526 19.0768H20.1348V8.57678H7.86526V19.0768ZM14.0578 12.5768V11.0768H17.75V12.5768H14.0578ZM14.0578 16.5768V15.0768H17.75V16.5768H14.0578ZM10.3655 12.5768V11.0768H11.8653V12.5768H10.3655ZM10.3655 16.5768V15.0768H11.8653V16.5768H10.3655Z" fill="#697591"/>
</g>
</svg>
