<svg width="36" height="26" viewBox="0 0 36 26" fill="none" xmlns="http://www.w3.org/2000/svg">
<rect width="36" height="26" rx="13" fill="#F1E5FA"/>
<mask id="mask0_1663_12409" style="mask-type:alpha" maskUnits="userSpaceOnUse" x="8" y="3" width="20" height="20">
<rect x="8" y="3" width="20" height="20" fill="#D9D9D9"/>
</mask>
<g mask="url(#mask0_1663_12409)">
<path d="M22.5641 20.17L17.3141 14.8943C17.0202 15.0216 16.7215 15.1196 16.4181 15.1885C16.1145 15.2574 15.7924 15.2918 15.4518 15.2918C14.1209 15.2918 12.9895 14.826 12.0579 13.8943C11.1261 12.9625 10.6602 11.8311 10.6602 10.5002C10.6602 10.0696 10.7149 9.65801 10.8245 9.26537C10.934 8.87273 11.0897 8.49905 11.2916 8.14433L14.2852 11.122L16.0737 9.3335L13.1122 6.356C13.4668 6.15405 13.838 5.99565 14.2258 5.88079C14.6136 5.76593 15.0222 5.7085 15.4518 5.7085C16.7829 5.7085 17.9143 6.17433 18.846 7.106C19.7777 8.0378 20.2435 9.16919 20.2435 10.5002C20.2435 10.8517 20.2104 11.1791 20.1441 11.4825C20.0779 11.7859 19.9785 12.0793 19.846 12.3625L25.1218 17.6125C25.2671 17.7595 25.3397 17.9373 25.3397 18.1458C25.3397 18.3543 25.2677 18.5306 25.1235 18.6747L23.6104 20.1879C23.4662 20.3319 23.2921 20.4013 23.0881 20.396C22.884 20.3906 22.7094 20.3152 22.5641 20.17ZM23.0962 18.9202L23.8589 18.1572L18.3093 12.6075C18.5432 12.319 18.7157 11.9907 18.8268 11.6227C18.9379 11.2546 18.9935 10.8804 18.9935 10.5002C18.9935 9.576 18.6634 8.75815 18.0031 8.04662C17.3428 7.33509 16.5073 6.98627 15.4966 7.00016L17.3029 8.8062C17.4534 8.9569 17.5287 9.13266 17.5287 9.3335C17.5287 9.53433 17.4534 9.71009 17.3029 9.86079L14.8124 12.3512C14.6618 12.5018 14.486 12.577 14.2852 12.577C14.0843 12.577 13.9086 12.5018 13.7579 12.3512L11.9518 10.545C11.9539 11.6144 12.3134 12.4646 13.0304 13.0956C13.7473 13.7264 14.5545 14.0418 15.4518 14.0418C15.8165 14.0418 16.1813 13.9876 16.546 13.8791C16.9106 13.7708 17.244 13.6012 17.5464 13.3704L23.0962 18.9202Z" fill="#7100CA"/>
</g>
</svg>
