<svg width="36" height="26" viewBox="0 0 36 26" fill="none" xmlns="http://www.w3.org/2000/svg">
<rect width="36" height="26" rx="13" fill="#F1E5FA"/>
<mask id="mask0_1663_12179" style="mask-type:alpha" maskUnits="userSpaceOnUse" x="8" y="3" width="20" height="20">
<rect x="8" y="3" width="20" height="20" fill="#D9D9D9"/>
</mask>
<g mask="url(#mask0_1663_12179)">
<path d="M23 18.048C23.3472 18.048 23.6423 17.9264 23.8854 17.6834C24.1284 17.4403 24.25 17.1452 24.25 16.798C24.25 16.4507 24.1284 16.1556 23.8854 15.9125C23.6423 15.6695 23.3472 15.548 23 15.548C22.6527 15.548 22.3576 15.6695 22.1145 15.9125C21.8715 16.1556 21.75 16.4507 21.75 16.798C21.75 17.1452 21.8715 17.4403 22.1145 17.6834C22.3576 17.9264 22.6527 18.048 23 18.048ZM23 20.548C23.4166 20.548 23.8055 20.4507 24.1666 20.2563C24.5277 20.0619 24.8264 19.791 25.0625 19.4438C24.743 19.2494 24.4097 19.107 24.0625 19.0167C23.7152 18.9264 23.3611 18.8813 23 18.8813C22.6388 18.8813 22.2847 18.9264 21.9375 19.0167C21.5902 19.107 21.2569 19.2494 20.9375 19.4438C21.1736 19.791 21.4722 20.0619 21.8333 20.2563C22.1944 20.4507 22.5833 20.548 23 20.548ZM12.4231 20.0832C12.0075 20.0832 11.6525 19.936 11.3581 19.6417C11.0638 19.3473 10.9166 18.9923 10.9166 18.5767V7.42296C10.9166 7.00741 11.0638 6.65241 11.3581 6.35796C11.6525 6.06366 12.0075 5.9165 12.4231 5.9165H23.5768C23.9924 5.9165 24.3474 6.06366 24.6418 6.35796C24.9361 6.65241 25.0833 7.00741 25.0833 7.42296V12.6938C24.8782 12.6062 24.6727 12.5319 24.467 12.4711C24.2613 12.4101 24.0501 12.3615 23.8333 12.3253V7.42296C23.8333 7.3588 23.8066 7.30005 23.7531 7.24671C23.6998 7.19324 23.641 7.1665 23.5768 7.1665H12.4231C12.3589 7.1665 12.3002 7.19324 12.2468 7.24671C12.1934 7.30005 12.1666 7.3588 12.1666 7.42296V18.5767C12.1666 18.6409 12.1934 18.6996 12.2468 18.753C12.3002 18.8064 12.3589 18.8332 12.4231 18.8332H17.3045C17.3355 19.0639 17.3814 19.2821 17.4423 19.4878C17.5032 19.6934 17.5775 19.8919 17.665 20.0832H12.4231ZM12.1666 18.8332V7.1665V12.3253V12.2628V18.8332ZM14.0416 16.8619H17.3893C17.4257 16.6451 17.4797 16.4339 17.5512 16.2282C17.6229 16.0225 17.7009 15.8171 17.7852 15.6121H14.0416V16.8619ZM14.0416 13.6248H19.3254C19.6843 13.3204 20.0673 13.0653 20.4743 12.8596C20.8814 12.6539 21.3173 12.5078 21.782 12.4213V12.3748H14.0416V13.6248ZM14.0416 10.3875H21.9583V9.13775H14.0416V10.3875ZM23 21.798C21.9594 21.798 21.0743 21.4331 20.3445 20.7034C19.6148 19.9737 19.25 19.0885 19.25 18.048C19.25 17.0074 19.6148 16.1223 20.3445 15.3925C21.0743 14.6628 21.9594 14.298 23 14.298C24.0405 14.298 24.9257 14.6628 25.6554 15.3925C26.3851 16.1223 26.75 17.0074 26.75 18.048C26.75 19.0885 26.3851 19.9737 25.6554 20.7034C24.9257 21.4331 24.0405 21.798 23 21.798Z" fill="#7100CA"/>
</g>
</svg>
