<svg width="36" height="26" viewBox="0 0 36 26" fill="none" xmlns="http://www.w3.org/2000/svg">
<rect width="36" height="26" rx="13" fill="#E5EFFA"/>
<mask id="mask0_1661_11487" style="mask-type:alpha" maskUnits="userSpaceOnUse" x="8" y="3" width="20" height="20">
<rect x="8" y="3" width="20" height="20" fill="#D9D9D9"/>
</mask>
<g mask="url(#mask0_1661_11487)">
<path d="M19.5225 20.9167V18.7148L24.0465 14.2115C24.1501 14.1133 24.2619 14.0418 24.3821 13.9969C24.5022 13.9521 24.6224 13.9296 24.7425 13.9296C24.8736 13.9296 25.0003 13.9541 25.1227 14.0032C25.2452 14.0523 25.3565 14.1261 25.4567 14.2244L26.2275 15.0032C26.3172 15.1069 26.3867 15.2191 26.4358 15.3398C26.485 15.4605 26.5096 15.5812 26.5096 15.7019C26.5096 15.8226 26.4872 15.9455 26.4423 16.0705C26.3974 16.1955 26.3258 16.3098 26.2275 16.4134L21.7244 20.9167H19.5225ZM20.516 19.9232H21.3077L24.0127 17.205L23.6377 16.8011L23.2419 16.4184L20.516 19.1315V19.9232ZM13.2565 20.9167C12.8355 20.9167 12.4792 20.7709 12.1875 20.4792C11.8958 20.1875 11.75 19.8312 11.75 19.4102V6.58983C11.75 6.16886 11.8958 5.81254 12.1875 5.52087C12.4792 5.22921 12.8355 5.08337 13.2565 5.08337H19.875L24.25 9.45837V11.79H23V10.0834H19.25V6.33337H13.2565C13.1923 6.33337 13.1335 6.36011 13.0802 6.41358C13.0267 6.46692 13 6.52567 13 6.58983V19.4102C13 19.4744 13.0267 19.5332 13.0802 19.5865C13.1335 19.64 13.1923 19.6667 13.2565 19.6667H17.6954V20.9167H13.2565ZM23.6377 16.8011L23.2419 16.4184L24.0127 17.205L23.6377 16.8011Z" fill="#0061CA"/>
</g>
</svg>
