<svg width="36" height="26" viewBox="0 0 36 26" fill="none" xmlns="http://www.w3.org/2000/svg">
<rect width="36" height="26" rx="13" fill="#F1E5FA"/>
<mask id="mask0_1663_12423" style="mask-type:alpha" maskUnits="userSpaceOnUse" x="8" y="3" width="20" height="20">
<rect x="8" y="3" width="20" height="20" fill="#D9D9D9"/>
</mask>
<g mask="url(#mask0_1663_12423)">
<path d="M18.0019 15.9808C18.9462 15.9808 19.7482 15.6503 20.4079 14.9894C21.0677 14.3284 21.3975 13.5258 21.3975 12.5815C21.3975 11.6372 21.067 10.8351 20.4061 10.1754C19.7451 9.51569 18.9425 9.18583 17.9981 9.18583C17.0538 9.18583 16.2518 9.51632 15.5921 10.1773C14.9324 10.8383 14.6025 11.6409 14.6025 12.5852C14.6025 13.5295 14.933 14.3315 15.594 14.9913C16.255 15.651 17.0576 15.9808 18.0019 15.9808ZM18 14.8333C17.375 14.8333 16.8438 14.6146 16.4063 14.1771C15.9688 13.7396 15.75 13.2083 15.75 12.5833C15.75 11.9583 15.9688 11.4271 16.4063 10.9896C16.8438 10.5521 17.375 10.3333 18 10.3333C18.625 10.3333 19.1563 10.5521 19.5938 10.9896C20.0313 11.4271 20.25 11.9583 20.25 12.5833C20.25 13.2083 20.0313 13.7396 19.5938 14.1771C19.1563 14.6146 18.625 14.8333 18 14.8333ZM18.0011 18.4167C16.0848 18.4167 14.3388 17.8881 12.7629 16.8308C11.1871 15.7738 10.0268 14.3579 9.2821 12.5833C10.0268 10.8088 11.1867 9.39292 12.7617 8.33583C14.3368 7.27861 16.0826 6.75 17.999 6.75C19.9152 6.75 21.6613 7.27861 23.2371 8.33583C24.8129 9.39292 25.9732 10.8088 26.7179 12.5833C25.9732 14.3579 24.8134 15.7738 23.2384 16.8308C21.6632 17.8881 19.9175 18.4167 18.0011 18.4167ZM18 17.1667C19.5695 17.1667 21.0104 16.7535 22.3229 15.9271C23.6354 15.1007 24.6389 13.9861 25.3334 12.5833C24.6389 11.1806 23.6354 10.066 22.3229 9.23958C21.0104 8.41319 19.5695 8 18 8C16.4306 8 14.9896 8.41319 13.6771 9.23958C12.3646 10.066 11.3611 11.1806 10.6667 12.5833C11.3611 13.9861 12.3646 15.1007 13.6771 15.9271C14.9896 16.7535 16.4306 17.1667 18 17.1667Z" fill="#7100CA"/>
</g>
</svg>
