<svg width="36" height="26" viewBox="0 0 36 26" fill="none" xmlns="http://www.w3.org/2000/svg">
<rect width="36" height="26" rx="13" fill="#F1E5FA"/>
<mask id="mask0_1661_1625" style="mask-type:alpha" maskUnits="userSpaceOnUse" x="8" y="3" width="20" height="20">
<rect x="8" y="3" width="20" height="20" fill="#D9D9D9"/>
</mask>
<g mask="url(#mask0_1661_1625)">
<path d="M18.1554 17.1011L25.0786 10.178C25.1159 10.1406 25.1346 10.0952 25.1346 10.0418C25.1346 9.98829 25.1159 9.94287 25.0786 9.90551L24.2677 9.09468C24.2302 9.05732 24.1848 9.03864 24.1315 9.03864C24.078 9.03864 24.0326 9.05732 23.9952 9.09468L17.0721 16.0178L18.1554 17.1011ZM12.9263 18.6091C11.687 18.5396 10.7564 18.264 10.1346 17.7822C9.51281 17.3004 9.2019 16.6187 9.2019 15.7372C9.2019 14.8933 9.55607 14.2088 10.2644 13.6836C10.9727 13.1585 11.9573 12.8404 13.2179 12.7293C13.8238 12.6769 14.2782 12.5674 14.5811 12.4007C14.8838 12.2341 15.0352 12.0033 15.0352 11.7084C15.0352 11.2993 14.8304 10.987 14.4207 10.7718C14.0109 10.5565 13.3392 10.4018 12.4054 10.3078L12.5192 9.06572C13.8002 9.18753 14.7481 9.46371 15.3629 9.89426C15.9778 10.3248 16.2852 10.9295 16.2852 11.7084C16.2852 12.3697 16.0313 12.894 15.5234 13.2813C15.0153 13.6686 14.2778 13.9012 13.3109 13.9793C12.3579 14.0594 11.6432 14.2453 11.1667 14.537C10.6902 14.8286 10.4519 15.2287 10.4519 15.7372C10.4519 16.2554 10.6504 16.6409 11.0473 16.8936C11.4443 17.1463 12.0877 17.3014 12.9775 17.3591L12.9263 18.6091ZM18.3509 18.6747L15.4984 15.8222L23.2804 8.04822C23.5261 7.80252 23.8133 7.681 24.1419 7.68364C24.4704 7.68627 24.7575 7.8078 25.0032 8.04822L26.125 9.16989C26.3707 9.41572 26.4936 9.70419 26.4936 10.0353C26.4936 10.3666 26.3707 10.655 26.125 10.9007L18.3509 18.6747ZM15.5673 19.2501C15.3793 19.295 15.2137 19.2458 15.0707 19.1026C14.9275 18.9594 14.8783 18.7938 14.9232 18.6059L15.4984 15.8222L18.3509 18.6747L15.5673 19.2501Z" fill="#7100CA"/>
</g>
</svg>
