<svg width="24" height="24" viewBox="0 0 24 24" fill="current" xmlns="http://www.w3.org/2000/svg">
<mask id="mask0_1663_12574" style="mask-type:alpha" maskUnits="userSpaceOnUse" x="0" y="0" width="24" height="24">
<rect width="24" height="24" fill="current"/>
</mask>
<g mask="url(#mask0_1663_12574)">
<path d="M12.1865 16.9212L20.4943 8.61349C20.5391 8.56866 20.5615 8.51416 20.5615 8.44999C20.5615 8.38583 20.5391 8.33133 20.4943 8.28649L19.5213 7.31349C19.4763 7.26866 19.4218 7.24624 19.3578 7.24624C19.2936 7.24624 19.2391 7.26866 19.1943 7.31349L10.8865 15.6212L12.1865 16.9212ZM5.91151 18.7307C4.42434 18.6474 3.30768 18.3167 2.56151 17.7385C1.81534 17.1603 1.44226 16.3423 1.44226 15.2845C1.44226 14.2718 1.86726 13.4504 2.71726 12.8202C3.56726 12.1901 4.74868 11.8083 6.26151 11.675C6.98851 11.6122 7.53376 11.4807 7.89726 11.2807C8.26059 11.0807 8.44226 10.8038 8.44226 10.45C8.44226 9.95899 8.19643 9.58433 7.70476 9.32599C7.21309 9.06766 6.40701 8.88208 5.28651 8.76924L5.42301 7.27874C6.96018 7.42491 8.09768 7.75633 8.83551 8.27299C9.57334 8.78966 9.94226 9.51533 9.94226 10.45C9.94226 11.2435 9.63751 11.8727 9.02801 12.3375C8.41834 12.8022 7.53334 13.0813 6.37301 13.175C5.22951 13.2712 4.37184 13.4942 3.80001 13.8442C3.22818 14.1942 2.94226 14.6743 2.94226 15.2845C2.94226 15.9063 3.18043 16.3689 3.65676 16.6722C4.13309 16.9754 4.90518 17.1616 5.97301 17.2307L5.91151 18.7307ZM12.421 18.8095L8.99801 15.3865L18.3365 6.05774C18.6313 5.76291 18.9759 5.61708 19.3703 5.62024C19.7644 5.62341 20.1089 5.76924 20.4038 6.05774L21.75 7.40374C22.0448 7.69874 22.1923 8.04491 22.1923 8.44224C22.1923 8.83974 22.0448 9.18591 21.75 9.48074L12.421 18.8095ZM9.08076 19.5C8.85509 19.5538 8.65643 19.4948 8.48476 19.323C8.31293 19.1512 8.25393 18.9525 8.30776 18.727L8.99801 15.3865L12.421 18.8095L9.08076 19.5Z" fill="current"/>
</g>
</svg>
