<svg fill="#000000" width="20px" height="20px" viewBox="0 0 0.6 0.6" version="1.2" baseProfile="tiny" xmlns="http://www.w3.org/2000/svg"><path d="M0.546 0.311c-0.002 -0.003 -0.052 -0.074 -0.12 -0.122C0.39 0.164 0.346 0.15 0.3 0.15s-0.09 0.014 -0.126 0.039c-0.068 0.048 -0.118 0.119 -0.12 0.122a0.025 0.025 0 0 0 0 0.029c0.002 0.003 0.052 0.074 0.12 0.122C0.21 0.486 0.254 0.5 0.3 0.5s0.09 -0.014 0.126 -0.039c0.068 -0.048 0.118 -0.119 0.12 -0.122a0.025 0.025 0 0 0 0 -0.028M0.3 0.413c-0.048 0 -0.088 -0.039 -0.088 -0.088 0 -0.048 0.039 -0.088 0.088 -0.088 0.048 0 0.088 0.039 0.088 0.088 0 0.048 -0.039 0.088 -0.088 0.088m0.05 -0.088c0 0.028 -0.022 0.05 -0.05 0.05a0.05 0.05 0 1 1 0.05 -0.05"/></svg>