<svg width="20" height="20" viewBox="0 0 1.6 1.6" xmlns="http://www.w3.org/2000/svg" xml:space="preserve" style="fill-rule:evenodd;clip-rule:evenodd;stroke-linejoin:round;stroke-miterlimit:2"><path style="fill:none" d="M-24 -6.4H8v20H-24z"/><g/><g/><g/><g/><g/><g/><g/><g/><g/><g/><g/><g/><g/><g/><g/><g/><g/><g/><g/><g/><g/><g/><g/><g/><g/><g/><path d="m0.342 0.259 -0.077 0.077 0.996 0.996 0.077 -0.077z"/><path d="m0.428 0.5 0.073 0.073c-0.08 0.068 -0.143 0.152 -0.184 0.226l0 0c0.114 0.191 0.296 0.372 0.525 0.344 0.062 -0.007 0.119 -0.029 0.172 -0.059l0.074 0.074c-0.103 0.066 -0.22 0.101 -0.348 0.084 -0.23 -0.031 -0.418 -0.22 -0.537 -0.441 0.056 -0.112 0.132 -0.219 0.225 -0.301m0.166 -0.108c0.064 -0.029 0.134 -0.046 0.208 -0.047 0.004 0 0.053 0.002 0.075 0.006a0.475 0.475 0 0 1 0.041 0.009C1.137 0.416 1.298 0.611 1.4 0.801c-0.043 0.086 -0.098 0.16 -0.165 0.232l-0.071 -0.071c0.049 -0.053 0.091 -0.104 0.122 -0.161 0 0 -0.032 -0.059 -0.056 -0.091a0.95 0.95 0 0 0 -0.049 -0.06c-0.014 -0.015 -0.066 -0.067 -0.078 -0.078 -0.084 -0.072 -0.182 -0.128 -0.3 -0.128 -0.046 0.001 -0.09 0.01 -0.131 0.025z" style="fill-rule:nonzero"/><path d="m0.626 0.698 0.06 0.06a0.121 0.121 0 0 0 0.153 0.153l0.06 0.06A0.201 0.201 0 0 1 0.626 0.698m0.171 -0.103 0.004 0a0.201 0.201 0 0 1 0.2 0.2l0 0.004z"/><g/><g/><g/><g/><g/><g/><g/><g/><g/><g/><g/><g/><g/><g/><g/><g/><g/></svg>