<svg width="20" height="20" viewBox="0 0 20 20" fill="none" xmlns="http://www.w3.org/2000/svg">
<mask id="mask0_1673_1764" style="mask-type:alpha" maskUnits="userSpaceOnUse" x="0" y="0" width="20" height="20">
<rect width="20" height="20" fill="#D9D9D9"/>
</mask>
<g mask="url(#mask0_1673_1764)">
<path d="M2.33151 17.0002C2.17998 17.0002 2.04714 16.9658 1.93297 16.897C1.81894 16.8283 1.73019 16.7377 1.66672 16.6252C1.59727 16.5141 1.56602 16.3891 1.57297 16.2502C1.57991 16.1113 1.61811 15.9793 1.68755 15.8543L9.35422 3.06266C9.42366 2.93766 9.51762 2.84738 9.63609 2.79183C9.75443 2.73627 9.87595 2.7085 10.0007 2.7085C10.1253 2.7085 10.2466 2.73627 10.3646 2.79183C10.4827 2.84738 10.5764 2.93766 10.6459 3.06266L18.3126 15.8543C18.382 15.9793 18.4202 16.1113 18.4271 16.2502C18.4341 16.3891 18.4028 16.5141 18.3334 16.6252C18.2639 16.7363 18.1737 16.8266 18.0626 16.896C17.9514 16.9654 17.8201 17.0002 17.6686 17.0002H2.33151ZM9.99568 14.5002C10.2069 14.5002 10.3855 14.4287 10.5313 14.2858C10.6771 14.1429 10.7501 13.9658 10.7501 13.7545C10.7501 13.5433 10.6786 13.3647 10.5357 13.2189C10.3928 13.0731 10.2157 13.0002 10.0044 13.0002C9.79318 13.0002 9.61463 13.0716 9.4688 13.2145C9.32297 13.3575 9.25005 13.5345 9.25005 13.7458C9.25005 13.957 9.32151 14.1356 9.46443 14.2814C9.60734 14.4272 9.78443 14.5002 9.99568 14.5002ZM9.99568 12.0002C10.2069 12.0002 10.3855 11.9283 10.5313 11.7845C10.6771 11.6408 10.7501 11.4627 10.7501 11.2502V8.75016C10.7501 8.53766 10.6786 8.35954 10.5357 8.21579C10.3928 8.07204 10.2157 8.00016 10.0044 8.00016C9.79318 8.00016 9.61463 8.07204 9.4688 8.21579C9.32297 8.35954 9.25005 8.53766 9.25005 8.75016V11.2502C9.25005 11.4627 9.32151 11.6408 9.46443 11.7845C9.60734 11.9283 9.78443 12.0002 9.99568 12.0002Z" fill="#EF0B0B"/>
</g>
</svg>
